<svg xmlns="http://www.w3.org/2000/svg" version="1.1" xmlns:xlink="http://www.w3.org/1999/xlink" xmlns:svgjs="http://svgjs.dev/svgjs" width="1440" height="560" preserveAspectRatio="none" viewBox="0 0 1440 560">
    <g mask="url(&quot;#SvgjsMask1010&quot;)" fill="none">
        <path d="M70.695,169.451C103.673,170.125,128.154,141.931,143.579,112.775C157.87,85.761,160.358,54.2,145.917,27.266C130.629,-1.247,103.044,-22.646,70.695,-23.155C37.543,-23.677,6.329,-4.701,-8.742,24.832C-22.683,52.149,-11.969,83.016,2.796,109.897C18.331,138.178,38.435,168.792,70.695,169.451" fill="rgba(179, 200, 207, 1)" class="triangle-float3"></path>
        <path d="M-46.85 -27.82 a19.03 19.03 0 1 0 38.06 0 a19.03 19.03 0 1 0 -38.06 0z" fill="rgba(179, 200, 207, 1)" class="triangle-float1"></path>
        <path d="M-113.56 38.89 a152.45 152.45 0 1 0 304.9 0 a152.45 152.45 0 1 0 -304.9 0z" fill="rgba(179, 200, 207, 1)" class="triangle-float3"></path>
        <path d="M1465.771,302.94C1520.764,304.437,1559.517,255.417,1586.661,207.567C1613.344,160.53,1630.686,104.971,1605.102,57.328C1578.366,7.539,1522.159,-21.324,1465.771,-17.56C1414.628,-14.146,1378.337,28.203,1355.316,74C1334.893,114.63,1336.005,160.327,1355.765,201.283C1379.018,249.48,1412.278,301.484,1465.771,302.94" fill="rgba(179, 200, 207, 1)" class="triangle-float2"></path>
        <path d="M1455.902,248.978C1506.939,250.933,1563.399,248.741,1592.483,206.757C1624.95,159.889,1624.051,96.655,1595.679,47.201C1567.177,-2.48,1513.173,-32.075,1455.902,-31.311C1399.915,-30.564,1348.422,1.249,1322.437,50.846C1298.105,97.289,1307.024,153.459,1336.316,196.944C1362.347,235.587,1409.343,247.195,1455.902,248.978" fill="rgba(179, 200, 207, 1)" class="triangle-float1"></path>
        <path d="M1197.54 55.8 a186.26 186.26 0 1 0 372.52 0 a186.26 186.26 0 1 0 -372.52 0z" fill="rgba(179, 200, 207, 1)" class="triangle-float1"></path>
        <path d="M-51.37 424.7 a28.07 28.07 0 1 0 56.14 0 a28.07 28.07 0 1 0 -56.14 0z" fill="rgba(179, 200, 207, 1)" class="triangle-float1"></path>
        <path d="M-90.25 463.59 a105.84 105.84 0 1 0 211.68 0 a105.84 105.84 0 1 0 -211.68 0z" fill="rgba(179, 200, 207, 1)" class="triangle-float3"></path>
        <path d="M-127.93 501.26 a181.19 181.19 0 1 0 362.38 0 a181.19 181.19 0 1 0 -362.38 0z" fill="rgba(179, 200, 207, 1)" class="triangle-float3"></path>
        <path d="M1387.826,581.936C1417.186,583.546,1448.158,576.535,1464.535,552.114C1482.686,525.048,1485.015,489.343,1468.928,461.001C1452.653,432.329,1420.794,417.276,1387.826,416.973C1354.28,416.665,1319.043,429.452,1304.102,459.488C1290.205,487.426,1306.812,518.673,1324.424,544.431C1339.279,566.156,1361.547,580.495,1387.826,581.936" fill="rgba(179, 200, 207, 1)" class="triangle-float2"></path>
        <path d="M1348.314,519.43C1365.065,518.542,1375.678,503.482,1384.003,488.919C1392.243,474.506,1398.968,458.169,1391.932,443.132C1383.875,425.912,1367.303,411.713,1348.314,412.644C1330.334,413.525,1319.996,431.19,1311.524,447.074C1303.719,461.707,1297.889,478.305,1305.405,493.088C1313.558,509.122,1330.351,520.383,1348.314,519.43" fill="rgba(179, 200, 207, 1)" class="triangle-float1"></path>
        <path d="M1366.819,553.499C1392.292,553.959,1418.852,546.275,1431.925,524.408C1445.281,502.067,1440.696,474.221,1427.69,451.675C1414.675,429.113,1392.817,409.955,1366.819,411.548C1342.59,413.033,1329.38,437.179,1317.632,458.421C1306.424,478.686,1295.022,501.558,1305.663,522.127C1316.946,543.937,1342.267,553.056,1366.819,553.499" fill="rgba(179, 200, 207, 1)" class="triangle-float2"></path>
    </g>
    <defs>
        <mask id="SvgjsMask1010">
            <rect width="1440" height="560" fill="#ffffff"></rect>
        </mask>
        <style>
            @keyframes float1 {
                    0%{transform: translate(0, 0)}
                    50%{transform: translate(-10px, 0)}
                    100%{transform: translate(0, 0)}
                }

                .triangle-float1 {
                    animation: float1 5s infinite;
                }

                @keyframes float2 {
                    0%{transform: translate(0, 0)}
                    50%{transform: translate(-5px, -5px)}
                    100%{transform: translate(0, 0)}
                }

                .triangle-float2 {
                    animation: float2 4s infinite;
                }

                @keyframes float3 {
                    0%{transform: translate(0, 0)}
                    50%{transform: translate(0, -10px)}
                    100%{transform: translate(0, 0)}
                }

                .triangle-float3 {
                    animation: float3 6s infinite;
                }
        </style>
    </defs>
</svg>